# xmcd
#
# Track frame offsets:
#	150
#	17702
#	29893
#	43540
#	59670
#	77732
#	89336
#
# Disc length: 1347 seconds
#
# Revision: 1
# Processed by: cddbd v1.5.2PL0 Copyright (c) Steve Scherf et al.
# Submitted via: audiograbber 1.83.01
#
DISCID=59054107
DTITLE=Rhonda Grant - Rhonda Grant Music
DYEAR=1900
DGENRE=
TTITLE0=Rhytm Of Love
TTITLE1=What Am I Gonna Do
TTITLE2=Comin´ Back In Style
TTITLE3=So Long
TTITLE4=Baby If You Leave
TTITLE5=I Like You 
TTITLE6=Out On The Town
EXTD=
EXTT0=
EXTT1=
EXTT2=
EXTT3=
EXTT4=
EXTT5=
EXTT6=
PLAYORDER=
